<svg width="20" height="19" viewBox="0 0 20 19" fill="none" xmlns="http://www.w3.org/2000/svg">
<path d="M19.4353 0.564829C19.0585 0.188262 18.606 0 18.077 0H1.92312C1.39429 0 0.941522 0.18822 0.564871 0.564829C0.188304 0.941479 0 1.39408 0 1.92295V16.5382C0 17.0672 0.188304 17.5199 0.564871 17.8965C0.941522 18.2731 1.39424 18.4614 1.92312 18.4614H18.077C18.606 18.4614 19.0585 18.2731 19.4353 17.8965C19.8118 17.5199 20 17.0673 20 16.5382V1.92295C20 1.39408 19.8118 0.941479 19.4353 0.564829ZM1.92312 16.9231C1.81897 16.9231 1.72884 16.8849 1.65273 16.8091C1.57657 16.7329 1.53856 16.6429 1.53856 16.5385V3.07707H9.23091V16.9231H1.92312ZM18.4615 16.5382C18.4615 16.6426 18.4235 16.7327 18.3474 16.8088C18.2711 16.8849 18.1812 16.9229 18.0768 16.9229H10.7692V3.07677H18.4617L18.4615 16.5382Z" fill="black"/>
<path d="M13 7V13L16.5 10L13 7Z" fill="black"/>
<path d="M4 7V13L7.5 10L4 7Z" fill="black"/>
</svg>
